<?xml version="1.0" encoding="UTF-8"?>
<svg width="26px" height="25px" viewBox="0 0 26 25" version="1.1" xmlns="http://www.w3.org/2000/svg" xmlns:xlink="http://www.w3.org/1999/xlink">
    <!-- Generator: Sketch 59.1 (86144) - https://sketch.com -->
    <title>编组</title>
    <desc>Created with Sketch.</desc>
    <g id="页面-1" stroke="none" stroke-width="1" fill="none" fill-rule="evenodd">
        <g id="图谱查询-1-2" transform="translate(-665.000000, -463.000000)" fill="#FFFFFF">
            <g id="图谱" transform="translate(486.000000, 270.000000)">
                <g id="家庭实体" transform="translate(164.000000, 180.000000)">
                    <g id="编组" transform="translate(15.400000, 13.200000)">
                        <path d="M4.21670576,24.427553 C3.73684351,24.4270544 3.34812828,24.0413645 3.34762563,23.565442 L3.34762563,14.805909 L1.5421104,14.805909 C1.45113093,14.805909 1.36082166,14.791618 1.27419848,14.7638669 C1.08537,14.7032134 0.602994503,14.477549 0.212101126,13.6988574 C-0.163042583,12.9522374 0.0205918543,12.2636121 0.291854768,11.9008541 C0.317322318,11.8667884 0.345303113,11.8345507 0.375462053,11.8046393 L11.9874919,0.28778023 C12.1501826,0.125760525 12.3715157,0.0348633169 12.602064,0.0353597993 C12.8337852,0.0353597993 13.0515998,0.124763481 13.2156309,0.286783186 L16.5233965,3.55526069 C16.8628521,3.89159698 16.8638574,4.43681406 16.5255746,4.77431356 C16.3628839,4.93716414 16.1410481,5.02855987 15.9098296,5.02789517 C15.6797839,5.02855987 15.4589534,4.93799501 15.2962627,4.77647383 L12.6030693,2.1153625 L1.54613159,13.0815208 L4.21670576,13.0815208 C4.69656801,13.0821855 5.08545079,13.4677093 5.08595344,13.9436318 L5.08595344,22.7031648 L20.141464,22.7031648 L20.141464,13.9436318 C20.1419667,13.4677093 20.5308495,13.0820193 21.0107117,13.0815208 L23.2513534,13.0815208 L19.1599581,9.03933688 C18.9967647,8.87731718 18.9049475,8.65780125 18.9042773,8.42864722 L18.9042773,4.90725281 C18.9042773,4.43199501 19.2941654,4.04514181 19.773525,4.04514181 C20.2528846,4.04514181 20.6427726,4.43182883 20.6427726,4.90725281 L20.6427726,8.07087448 L24.781417,12.1595871 C24.8321846,12.2097717 24.8764177,12.2659385 24.9132786,12.3267582 C24.9925296,12.4578696 25.3701866,13.1464948 25.0376005,13.873174 C24.7031713,14.6048384 23.9274164,14.7685198 23.7752813,14.7937783 C23.7275296,14.8017546 23.6792753,14.8057428 23.6308534,14.8057428 L21.8799594,14.8057428 L21.8799594,23.5652758 C21.8796243,24.0410321 21.4909091,24.4268883 21.0112144,24.427553 L4.21670576,24.427553 Z" id="Fill-1"></path>
                        <path d="M12.1857252,24.7034483 C11.9588438,24.7029076 11.7748987,24.2845838 11.774661,23.7683927 L11.774661,17.5737397 L10.4184424,17.5737397 L10.4184424,23.7683927 C10.4155905,24.2748511 10.2312494,24.6888493 10.0075367,24.6888493 C9.77764494,24.6823609 9.59940359,24.2768337 9.59655172,23.7656892 L9.59655172,17.5137216 C9.59655172,16.5155841 9.95343052,15.7034483 10.3921419,15.7034483 L11.8008031,15.7034483 C12.2395937,15.7034483 12.5965517,16.5155841 12.5965517,17.5137216 L12.5965517,23.7682125 C12.5963141,24.2842233 12.4126066,24.7027273 12.1857252,24.7034483" id="Fill-3"></path>
                    </g>
                </g>
            </g>
        </g>
    </g>
</svg>