<?xml version="1.0" encoding="UTF-8"?>
<svg width="23px" height="23px" viewBox="0 0 23 23" version="1.1" xmlns="http://www.w3.org/2000/svg" xmlns:xlink="http://www.w3.org/1999/xlink">
    <!-- Generator: Sketch 59.1 (86144) - https://sketch.com -->
    <title>编组</title>
    <desc>Created with Sketch.</desc>
    <defs>
        <polygon id="path-1" points="5.05747126e-05 2.52873563e-05 21.8004828 2.52873563e-05 21.8004828 21.800508 5.05747126e-05 21.800508"></polygon>
    </defs>
    <g id="页面-1" stroke="none" stroke-width="1" fill="none" fill-rule="evenodd">
        <g id="图谱查询-1-2" transform="translate(-1049.000000, -287.000000)">
            <g id="图谱" transform="translate(486.000000, 270.000000)">
                <g id="网格" transform="translate(546.000000, 0.000000)">
                    <g id="编组" transform="translate(17.600000, 17.600000)">
                        <mask id="mask-2" fill="white">
                            <use xlink:href="#path-1"></use>
                        </mask>
                        <g id="Clip-2"></g>
                        <path d="M16.9228552,9.51085287 L12.295269,9.51085287 L12.295269,4.88048506 L16.9284184,4.88048506 L16.9284184,9.51085287 C16.9284184,9.51085287 16.9228552,9.51085287 16.9228552,9.51085287 L16.9228552,9.51085287 Z M16.9228552,16.9342092 L12.295269,16.9342092 L12.295269,12.3008069 L16.9284184,12.3008069 L16.9284184,16.9311747 L16.9228552,16.9311747 L16.9228552,16.9342092 Z M4.87494713,16.9342092 L4.87494713,12.3008069 L9.50253333,12.3008069 L9.50253333,16.9311747 L4.87494713,16.9311747 C4.87494713,16.9311747 4.87494713,16.9342092 4.87494713,16.9342092 L4.87494713,16.9342092 Z M4.87494713,4.88048506 L9.50253333,4.88048506 L9.50253333,9.51085287 L4.87191264,9.51085287 C4.87191264,9.51085287 4.87494713,4.88048506 4.87494713,4.88048506 L4.87494713,4.88048506 Z M21.8005333,4.88048506 L21.8005333,2.09887586 L19.7155908,2.09887586 L19.7155908,2.52873563e-05 L16.9228552,2.52873563e-05 L16.9228552,2.09053103 L12.295269,2.09053103 L12.295269,2.52873563e-05 L9.50531494,2.52873563e-05 L9.50531494,2.09053103 L4.87191264,2.09053103 L4.87191264,2.52873563e-05 L2.08752184,2.52873563e-05 L2.08752184,2.09053103 L5.05747126e-05,2.09053103 L5.05747126e-05,4.87770345 L2.08474023,4.87770345 L2.08474023,9.50807126 L5.05747126e-05,9.50807126 L5.05747126e-05,12.2952437 L2.08474023,12.2952437 L2.08474023,16.9256115 L5.05747126e-05,16.9256115 L5.05747126e-05,19.7158184 L2.08474023,19.7158184 L2.08474023,21.7949448 L4.87494713,21.7949448 L4.87494713,19.7241632 L9.50253333,19.7241632 L9.50253333,21.800508 L12.295269,21.800508 L12.295269,19.7241632 L16.9284184,19.7241632 L16.9284184,21.800508 L19.7155908,21.800508 L19.7155908,19.7241632 L21.8005333,19.7241632 L21.8005333,16.9342092 L19.7155908,16.9342092 L19.7155908,12.3008069 L21.8005333,12.3008069 L21.8005333,9.51085287 L19.7155908,9.51085287 L19.7155908,4.88048506 L21.8005333,4.88048506 Z" id="Fill-1" fill="#FFFFFF" mask="url(#mask-2)"></path>
                    </g>
                </g>
            </g>
        </g>
    </g>
</svg>