<?xml version="1.0" standalone="no"?><!DOCTYPE svg PUBLIC "-//W3C//DTD SVG 1.1//EN" "http://www.w3.org/Graphics/SVG/1.1/DTD/svg11.dtd"><svg t="1574301356863" class="icon" viewBox="0 0 1024 1024" version="1.1" xmlns="http://www.w3.org/2000/svg" p-id="11011" xmlns:xlink="http://www.w3.org/1999/xlink" width="200" height="200"><defs><style type="text/css"></style></defs><path d="M136.290587 987.815133v-367.580925H62.846055a34.802984 34.802984 0 0 1-10.901522-1.79133c-7.677129-2.559043-27.279398-11.976321-43.145464-44.680889-15.303077-31.322685-7.830671-60.23987 3.224394-75.440585a35.417154 35.417154 0 0 1 3.377937-4.043288L487.595999 10.977271a34.802984 34.802984 0 0 1 49.952518 0l134.503296 137.1647a36.850218 36.850218 0 0 1 0.102361 51.129677 34.751803 34.751803 0 0 1-50.003698 0.051181l-109.527037-111.676633-449.623841 460.218279h103.282972a35.826601 35.826601 0 0 1 35.314793 36.184867v376.84466h623.997025v-376.84466a35.826601 35.826601 0 0 1 35.314792-36.184867h84.755501l-166.38897-169.613365a36.850218 36.850218 0 0 1-10.389714-25.64161V204.850362a35.826601 35.826601 0 0 1 35.314792-36.184867 35.826601 35.826601 0 0 1 35.365973 36.184867v132.763147L1007.900605 509.120565c2.047234 2.098415 3.889745 4.452735 5.37399 7.011778 3.224394 5.527533 18.578652 34.393537 5.066905 64.897328-13.614108 30.708515-45.141517 37.56675-51.334401 38.641548a34.547079 34.547079 0 0 1-5.885798 0.511809h-71.141394v367.580924a35.826601 35.826601 0 0 1-35.365973 36.184867H171.60538a35.826601 35.826601 0 0 1-35.314793-36.184867z" fill="#ffffff" p-id="11012"></path><path d="M550.343731 992.114325v-211.376945l-128.82222-0.102361v211.376945c-0.255904 17.247949-8.95665 31.476228-28.047111 31.476227-19.602269-0.204723-34.802984-14.023555-35.058887-31.476227v-213.321818C358.415513 744.552513 388.868123 716.91485 426.281331 716.91485h120.172655c37.413207 0 67.865818 27.688844 67.865818 61.775296v213.424179c0 17.606215-15.712524 31.834494-35.058888 31.885675-19.346364 0-28.917185-14.33064-28.968365-31.885675z" fill="#ffffff" p-id="11013"></path></svg>