<?xml version="1.0" encoding="UTF-8"?>
<svg width="17px" height="26px" viewBox="0 0 17 26" version="1.1" xmlns="http://www.w3.org/2000/svg" xmlns:xlink="http://www.w3.org/1999/xlink">
    <!-- Generator: Sketch 59.1 (86144) - https://sketch.com -->
    <title>编组</title>
    <desc>Created with Sketch.</desc>
    <g id="页面-1" stroke="none" stroke-width="1" fill="none" fill-rule="evenodd">
        <g id="图谱查询-1-2" transform="translate(-934.000000, -366.000000)" fill="#FFFFFF">
            <g id="图谱" transform="translate(486.000000, 270.000000)">
                <g id="手机2" transform="translate(429.000000, 82.000000)">
                    <g id="编组" transform="translate(19.800000, 14.300000)">
                        <path d="M1.57707819,23.6556346 L14.1934346,23.6556346 L14.1934346,20.3044612 L1.57707819,20.3044612 L1.57707819,23.6556346 Z M1.57707819,18.727383 L14.1934346,18.727383 L14.1934346,7.32583032 L1.57707819,7.32583032 L1.57707819,18.727383 Z M1.57707819,5.7488867 L14.1934346,5.7488867 L14.1934346,1.57707819 L1.57707819,1.57707819 L1.57707819,5.7488867 Z M14.1934346,0 L1.57707819,0 C0.70718883,0 0,0.70718883 0,1.57707819 L0,23.6556346 C0,24.5255239 0.70718883,25.2327128 1.57707819,25.2327128 L14.1934346,25.2327128 C15.0631894,25.2327128 15.7705128,24.5255239 15.7705128,23.6556346 L15.7705128,1.57707819 C15.7705128,0.70718883 15.0631894,0 14.1934346,0 L14.1934346,0 Z" id="Fill-1"></path>
                        <path d="M9.07292989,4.36890628 L3.75037511,4.36890628 C3.31421926,4.36890628 2.9619033,4.01659032 2.9619033,3.58043447 C2.9619033,3.14427862 3.31421926,2.79182809 3.75037511,2.79182809 L9.07292989,2.79182809 C9.50908574,2.79182809 9.8614017,3.14427862 9.8614017,3.58043447 C9.8614017,4.01659032 9.5066634,4.36890628 9.07292989,4.36890628" id="Fill-3"></path>
                        <path d="M10.4429922,3.58038064 C10.4429922,4.01586362 10.795981,4.36885245 11.231464,4.36885245 C11.666947,4.36885245 12.0200704,4.01586362 12.0200704,3.58038064 C12.0200704,3.14489766 11.666947,2.79190883 11.231464,2.79190883 C10.795981,2.79190883 10.4429922,3.14489766 10.4429922,3.58038064" id="Fill-4"></path>
                        <path d="M7.09670383,21.9800613 C7.09670383,22.4155443 7.44969266,22.7685331 7.88517564,22.7685331 C8.32065862,22.7685331 8.67378202,22.4155443 8.67378202,21.9800613 C8.67378202,21.5445784 8.32065862,21.1915895 7.88517564,21.1915895 C7.44969266,21.1915895 7.09670383,21.5445784 7.09670383,21.9800613" id="Fill-5"></path>
                    </g>
                </g>
            </g>
        </g>
    </g>
</svg>