<?xml version="1.0" encoding="UTF-8"?>
<svg width="26px" height="27px" viewBox="0 0 26 27" version="1.1" xmlns="http://www.w3.org/2000/svg" xmlns:xlink="http://www.w3.org/1999/xlink">
    <!-- Generator: Sketch 59.1 (86144) - https://sketch.com -->
    <title>编组</title>
    <desc>Created with Sketch.</desc>
    <g id="页面-1" stroke="none" stroke-width="1" fill="none" fill-rule="evenodd">
        <g id="图谱查询-1-2" transform="translate(-854.000000, -541.000000)" fill="#FFFFFF">
            <g id="图谱" transform="translate(486.000000, 270.000000)">
                <g id="tv" transform="translate(353.000000, 257.000000)">
                    <g id="编组" transform="translate(15.400000, 14.300000)">
                        <path d="M2.46527195,5.62910353 C2.01146984,5.62910353 1.64355458,5.99701879 1.64355458,6.45082089 L1.64355458,20.3166856 C1.64355458,20.7704877 2.01146984,21.138403 2.46527195,21.138403 L2.46527195,21.138403 L22.8010125,21.138403 C23.2548146,21.138403 23.6227298,20.7704877 23.6227298,20.3166856 L23.6227298,6.45082089 C23.6227298,5.99701879 23.2548146,5.62910353 22.8010125,5.62910353 L2.46527195,5.62910353 Z M22.8010125,22.7819709 L2.46527195,22.7819709 C1.10373247,22.7819709 -1.33157895e-05,21.6782251 -1.33157895e-05,20.3166856 L-1.33157895e-05,6.45082089 C-1.33157895e-05,5.08928142 1.10373247,3.98553563 2.46527195,3.98553563 L22.8010125,3.98553563 C24.1625519,3.98553563 25.2662977,5.08928142 25.2662977,6.45082089 L25.2662977,20.3166856 C25.2662977,21.6782251 24.1625519,22.7819709 22.8010125,22.7819709 Z" id="Fill-1"></path>
                        <path d="M11.5703292,5.15249147 C11.3048123,5.152092 11.0559402,5.02359463 10.9020097,4.80734621 L9.46656758,2.79133568 C9.18653653,2.43420621 9.24885442,1.91768674 9.60598389,1.63752253 C9.96311337,1.35749147 10.4796328,1.41980937 10.7597971,1.77693884 C10.7752434,1.79664621 10.7897576,1.81701937 10.8033397,1.83805832 L12.2441081,3.85406884 C12.5073613,4.22384832 12.4210749,4.73690568 12.0514286,5.00015884 C11.9125449,5.09909516 11.7462307,5.15222516 11.5757886,5.15249147 L11.5703292,5.15249147 Z M11.9702023,9.49130832 L15.410736,11.8415452 C15.5770502,11.9519331 15.6224571,12.1763041 15.5120692,12.3427515 C15.4854376,12.3829652 15.4509497,12.4174531 15.410736,12.4442178 L11.9702023,14.7999141 C11.8610128,14.8671588 11.7233276,14.8671588 11.6141381,14.7999141 C11.5025518,14.7354657 11.4337092,14.6165557 11.4333097,14.4876588 L11.4333097,9.78172568 C11.4337092,9.65282884 11.5025518,9.53391884 11.6141381,9.46947042 C11.7233276,9.40222568 11.8610128,9.40222568 11.9702023,9.46947042 L11.9702023,9.49130832 Z" id="Fill-3"></path>
                        <path d="M12.7700951,4.99909358 C12.3164262,5.01214305 11.9381246,4.65488042 11.9250751,4.20121147 C11.9198819,4.01758674 11.9762077,3.83755726 12.0852641,3.689752 L14.4683909,0.468529368 C14.7376362,0.102345158 15.2526909,0.0239151579 15.6188751,0.293160421 C15.9849262,0.562405684 16.0634893,1.07746042 15.7941109,1.44364463 L13.4329551,4.66486726 C13.2778262,4.87538989 13.0316172,4.99949305 12.7700951,4.99909358" id="Fill-5"></path>
                        <polygon id="Fill-7" points="7.70265158 26.2771126 17.5637926 26.2771126 17.5637926 24.6335447 7.70265158 24.6335447"></polygon>
                        <path d="M0.975155211,17.8513604 L24.2747242,17.8513604 L24.2747242,18.9469836 L0.975155211,18.9469836 C0.975155211,18.9469836 0.975155211,17.8513604 0.975155211,17.8513604" id="Fill-9"></path>
                    </g>
                </g>
            </g>
        </g>
    </g>
</svg>