<?xml version="1.0" encoding="UTF-8"?>
<svg width="29px" height="28px" viewBox="0 0 29 28" version="1.1" xmlns="http://www.w3.org/2000/svg" xmlns:xlink="http://www.w3.org/1999/xlink">
    <!-- Generator: Sketch 59.1 (86144) - https://sketch.com -->
    <title>编组</title>
    <desc>Created with Sketch.</desc>
    <g id="页面-1" stroke="none" stroke-width="1" fill="none" fill-rule="evenodd">
        <g id="图谱查询-1-2" transform="translate(-928.000000, -453.000000)" fill="#FFFFFF">
            <g id="图谱" transform="translate(486.000000, 270.000000)">
                <g id="宽带" transform="translate(429.000000, 170.000000)">
                    <g id="编组" transform="translate(13.200000, 13.200000)">
                        <path d="M11.7397864,21.5920681 C11.24049,21.5920681 10.8321296,22.1730552 10.8321296,22.8829302 C10.8321296,23.5930255 11.24049,24.1740126 11.7397864,24.1740126 C12.2390828,24.1740126 12.6474431,23.5930255 12.6474431,22.8829302 C12.6474431,22.1730552 12.2390828,21.5920681 11.7397864,21.5920681 M8.10900448,21.5920681 C7.60970806,21.5920681 7.20119281,22.1730552 7.20119281,22.8829302 C7.20119281,23.5930255 7.60970806,24.1740126 8.10900448,24.1740126 C8.60814598,24.1740126 9.01666123,23.5930255 9.01666123,22.8829302 C9.01666123,22.1730552 8.60814598,21.5920681 8.10900448,21.5920681 M4.47806764,21.5920681 C3.97877123,21.5920681 3.57041089,22.1730552 3.57041089,22.8829302 C3.57041089,23.5930255 3.97877123,24.1740126 4.47806764,24.1740126 C4.97736406,24.1740126 5.38572439,23.5930255 5.38572439,22.8829302 C5.38572439,22.1730552 4.97736406,21.5920681 4.47806764,21.5920681" id="Fill-1"></path>
                        <path d="M20.7512555,5.40451578 C20.1824015,5.7736822 20.2006817,6.61472478 20.7876609,6.95368245 L20.8026879,6.96266762 C21.0931566,7.13214645 21.4531829,7.11092287 21.7346665,6.92951545 C21.9041454,6.8175107 22.1067764,6.75399487 22.3245892,6.75399487 C22.5425569,6.75399487 22.7451879,6.8175107 22.9146668,6.92951545 C23.1959954,7.1140212 23.5561767,7.13214645 23.8466454,6.96266762 L23.8616724,6.95368245 C24.4486516,6.61472478 24.4698752,5.7736822 23.8980778,5.40451578 C23.4502137,5.1109487 22.908625,4.93852645 22.3276875,4.93852645 C21.74675,4.93852645 21.2051614,5.1109487 20.7512555,5.40451578 Z M26.78464,24.012641 C26.78464,24.5783967 26.3215941,25.0414426 25.7558384,25.0414426 L2.84422352,25.0414426 C2.27831294,25.0414426 1.81542194,24.5783967 1.81542194,24.012641 L1.81542194,18.0822761 C1.81542194,17.5163655 2.27831294,17.0534745 2.84422352,17.0534745 L25.7558384,17.0534745 C26.3215941,17.0534745 26.78464,17.5163655 26.78464,18.0822761 L26.78464,24.012641 Z M23.2353443,15.2380061 L23.2353443,8.50579253 C23.2353443,7.88256278 22.8269839,7.37118287 22.3276875,7.37118287 C21.8283911,7.37118287 21.4200308,7.88256278 21.4200308,8.50579253 L21.4200308,15.2380061 L2.84422352,15.2380061 C1.27677669,15.2380061 -4.6475e-05,16.5149842 -4.6475e-05,18.0822761 L-4.6475e-05,24.012641 C-4.6475e-05,25.5799329 1.27677669,26.8567561 2.84422352,26.8567561 L25.7558384,26.8567561 C27.3231304,26.8567561 28.5999535,25.5799329 28.5999535,24.012641 L28.5999535,18.0822761 C28.5999535,16.5149842 27.3231304,15.2380061 25.7558384,15.2380061 L23.2353443,15.2380061 Z" id="Fill-3"></path>
                        <path d="M24.9207292,5.52552119 C25.2051562,5.84325528 25.6771872,5.91281286 26.0492971,5.69794344 C26.5485935,5.41057303 26.6514582,4.73575603 26.2671099,4.30911553 C25.2959373,3.23197994 23.8919276,2.55127611 22.3306774,2.55127611 C20.7725256,2.55127611 19.3655724,3.22903653 18.3973432,4.30617211 C18.0100516,4.73575603 18.1158597,5.41351644 18.6151561,5.70104178 L18.6303379,5.71002694 C18.996406,5.92195294 19.4563536,5.84015694 19.7376822,5.52552119 C20.3760938,4.81445369 21.3020307,4.36674453 22.327734,4.36674453 C23.3534372,4.36674453 24.2823176,4.81151028 24.9207292,5.52552119" id="Fill-5"></path>
                        <path d="M16.5122708,4.48466709 C16.9087025,4.71162001 17.407844,4.61774051 17.6832859,4.25771418 C18.7573231,2.86888626 20.4397181,1.97331301 22.3276875,1.97331301 C24.2158119,1.97331301 25.8980519,2.86888626 26.9722441,4.25771418 C27.2504744,4.61479709 27.7497709,4.71162001 28.1401609,4.48466709 L28.1431043,4.48156876 C28.6211771,4.20628184 28.742167,3.57096859 28.4033643,3.13518801 C28.2066201,2.88096976 27.9919056,2.63589159 27.7589109,2.40599526 C26.3065672,0.953651508 24.3761506,0.154901175 22.3247441,0.154901175 C20.2731827,0.154901175 18.3458644,0.956749842 16.8935207,2.40909359 C16.660526,2.64193334 16.4456566,2.88406809 16.2490674,3.13828634 C15.913208,3.57701034 16.0341979,4.20938018 16.5122708,4.48466709" id="Fill-7"></path>
                    </g>
                </g>
            </g>
        </g>
    </g>
</svg>